<?xml version="1.0" standalone="no"?>
<!DOCTYPE svg PUBLIC "-//W3C//DTD SVG 20010904//EN"
 "http://www.w3.org/TR/2001/REC-SVG-20010904/DTD/svg10.dtd">
<svg version="1.0" xmlns="http://www.w3.org/2000/svg"
 width="284.000000pt" height="284.000000pt" viewBox="0 0 284.000000 284.000000"
 preserveAspectRatio="xMidYMid meet">
<metadata>
Created by potrace 1.11, written by Peter Selinger 2001-2013
</metadata>
<g transform="translate(0.000000,284.000000) scale(0.100000,-0.100000)"
fill="#000000" stroke="none">
<path d="M775 2828 c-2 -7 -6 -24 -9 -38 -2 -14 -13 -70 -25 -125 -11 -55 -22
-111 -25 -125 -2 -14 -7 -36 -10 -50 -3 -14 -8 -36 -10 -50 -3 -14 -14 -72
-26 -130 -12 -58 -24 -118 -27 -135 -2 -16 -22 -115 -43 -220 -22 -104 -41
-201 -44 -215 -22 -112 -25 -131 -70 -350 -19 -96 -37 -186 -39 -200 -3 -14
-14 -70 -26 -125 -11 -55 -22 -111 -25 -125 -5 -25 -22 -116 -30 -155 -2 -11
-11 -54 -19 -95 -9 -41 -18 -86 -20 -100 -3 -14 -12 -59 -20 -100 -9 -41 -18
-86 -20 -100 -3 -14 -12 -59 -20 -100 -9 -41 -19 -90 -22 -108 -3 -18 -12 -64
-20 -103 -8 -39 -15 -72 -15 -75 0 -7 1790 -4 1791 4 8 83 12 103 28 145 6 15
13 42 16 60 3 18 21 107 40 199 19 91 36 177 39 190 2 12 9 51 16 86 7 34 10
65 7 68 -3 4 -181 5 -394 4 -393 -1 -571 -2 -609 -1 -21 1 -21 3 22 211 24
116 46 221 48 233 2 12 13 65 24 117 12 52 23 109 26 125 3 17 8 41 11 55 6
24 9 39 19 90 3 14 24 113 46 220 23 107 44 210 47 228 3 18 9 34 13 37 4 2
235 5 514 6 278 1 506 3 506 6 0 2 14 70 30 151 17 81 32 156 34 167 14 72 78
394 83 413 l5 22 -896 0 c-708 0 -898 -3 -901 -12z"/>
</g>
</svg>
